<svg xmlns="http://www.w3.org/2000/svg" xmlns:xlink="http://www.w3.org/1999/xlink" width="57.57" height="57.565" viewBox="0 0 57.57 57.565">
  <defs>
    <linearGradient id="linear-gradient" y1="0.5" x2="1" y2="0.5" gradientUnits="objectBoundingBox">
      <stop offset="0" stop-color="#6cbbf5"/>
      <stop offset="1" stop-color="#5b139a"/>
    </linearGradient>
  </defs>
  <path id="Path_31868" data-name="Path 31868" d="M50.153,49.68H18.492A12.952,12.952,0,0,0,5.54,62.632V94.293a12.952,12.952,0,0,0,12.952,12.952H50.153A12.952,12.952,0,0,0,63.11,94.293V62.632A12.952,12.952,0,0,0,50.153,49.68Zm-12.231,43.8a73.6,73.6,0,0,0-10.15.076c-.472.076-1.03-.031-.409.458a11.635,11.635,0,0,0,2.554,1.3,11.651,11.651,0,0,1,3.593,2.111,1.367,1.367,0,0,1,.48,1.343c-.305.98-3.087,1.285-6.117,1.285a42.336,42.336,0,0,1-8.167-.672c7.225.467,10.987.259,12.673-.27.576-.183.853-.37.909-.563.051-.157-.076-.376-.305-.614a11.134,11.134,0,0,0-3.348-1.945c-9.129-4.1,1.551-3.5,9.5-2.9,3.1.233,5.782.467,6.716.421a73.977,73.977,0,0,1-7.938-.025Zm-.768-21.594a14.205,14.205,0,0,0,.533,4.759c3.438,12.368-10.676,9.519-12.82,9.031-.056-.015-.112-.025-.167-.041l-.1-.025c-2.95,1.294-4.221,10.81-4.844,13.734-.072-10.029,1.771-14.37,4.207-18.693A60.554,60.554,0,0,1,37.241,63.393c-5.733,3.219-14.1,12.84-16.359,20.186-2.523-5.469-3.239-12.3-.153-15.755a5.553,5.553,0,0,1,1.8,3.483,6.339,6.339,0,0,0-1.055-4.229,15.2,15.2,0,0,1,3.763-3.671,13.572,13.572,0,0,1,.873,3.849,9.392,9.392,0,0,0,.147-4.549c7.083-4.595,18.653-7.484,23.7-4.813,0,0-12.309,3.539-12.806,13.993Z" transform="translate(-5.54 -49.68)" fill="url(#linear-gradient)"/>
</svg>
